<?xml version="1.0" encoding="UTF-8"?>
<svg id="Layer_1" data-name="Layer 1" xmlns="http://www.w3.org/2000/svg" viewBox="0 0 150.00001463 150.00001463">
  <defs>
    <style>
      .cls-1 {
        fill: #fff;
      }
    </style>
  </defs>
  <rect class="cls-1" x="75" y="75" width="75.00001463" height="75.00001463"/>
  <rect y="75" width="75.00001463" height="75.00001463"/>
  <rect class="cls-1" x="0" width="75.00001463" height="75.00001463" transform="translate(75.00001463 75.00001463) rotate(180)"/>
  <rect x="75" width="75.00001463" height="75.00001463" transform="translate(225.00001463 75.00001463) rotate(180)"/>
  <path class="cls-1" d="M62.50000732,95.65998046v41.84002686h-10.01000977v-40h-9.9699707v40h-10.01000977v-40h-10v40h-10.01000977v-41.84002686c0-4.5,3.65997314-8.15997314,8.15997314-8.15997314h33.68005371c4.5,0,8.15997314,3.65997314,8.15997314,8.15997314Z"/>
  <path d="M137.50000732,95.65998046v41.84002686h-10.01000977v-40h-9.9699707v40h-10.01000977v-40h-10v40h-10.01000977v-41.84002686c0-4.5,3.65997314-8.15997314,8.15997314-8.15997314h33.68005371c4.5,0,8.15997314,3.65997314,8.15997314,8.15997314Z"/>
  <path class="cls-1" d="M97.52002685,22.51001708v9.9699707h40v10.01000977h-40v10h40v10.01000977h-41.84002686c-4.51000977,0-8.15997314-3.66003418-8.15997314-8.16003418V20.65998046c0-4.5,3.64996338-8.15997314,8.15997314-8.15997314h41.84002686v10.01000977h-40Z"/>
  <path d="M62.52002685,12.50000732v41.83996582c0,4.5-3.66003418,8.16003418-8.17004395,8.16003418H12.52002685v-10.01000977h40V12.50000732h10Z"/>
</svg>