<?xml version="1.0" encoding="UTF-8"?>
<svg id="Layer_1" data-name="Layer 1" xmlns="http://www.w3.org/2000/svg" xmlns:xlink="http://www.w3.org/1999/xlink" viewBox="0 0 556.44 260.41">
  <defs>
    <style>
      .cls-1 {
        fill: url(#linear-gradient-15);
      }

      .cls-2 {
        fill: url(#linear-gradient-13);
      }

      .cls-3 {
        fill: url(#linear-gradient-28);
      }

      .cls-4 {
        fill: url(#linear-gradient-2);
      }

      .cls-5 {
        fill: url(#linear-gradient-25);
      }

      .cls-6 {
        fill: url(#linear-gradient-10);
      }

      .cls-7 {
        fill: url(#linear-gradient-12);
      }

      .cls-8 {
        fill: url(#linear-gradient-27);
      }

      .cls-9 {
        fill: url(#linear-gradient-26);
      }

      .cls-10 {
        fill: url(#linear-gradient-4);
      }

      .cls-11 {
        fill: url(#linear-gradient-3);
      }

      .cls-12 {
        fill: url(#linear-gradient-5);
      }

      .cls-13 {
        fill: url(#linear-gradient-22);
      }

      .cls-14 {
        fill: url(#linear-gradient-24);
      }

      .cls-15 {
        fill: url(#linear-gradient-8);
      }

      .cls-16 {
        fill: url(#linear-gradient-14);
      }

      .cls-17 {
        fill: url(#linear-gradient-29);
      }

      .cls-18 {
        fill: url(#linear-gradient-20);
      }

      .cls-19 {
        fill: url(#linear-gradient-17);
      }

      .cls-20 {
        fill: url(#linear-gradient-7);
      }

      .cls-21 {
        fill: url(#linear-gradient-9);
      }

      .cls-22 {
        fill: url(#linear-gradient-11);
      }

      .cls-23 {
        fill: url(#linear-gradient-19);
      }

      .cls-24 {
        fill: url(#linear-gradient-6);
      }

      .cls-25 {
        fill: url(#linear-gradient-21);
      }

      .cls-26 {
        fill: url(#linear-gradient-16);
      }

      .cls-27 {
        fill: url(#linear-gradient);
      }

      .cls-28 {
        fill: url(#linear-gradient-23);
      }

      .cls-29 {
        fill: url(#linear-gradient-18);
      }
    </style>
    <linearGradient id="linear-gradient" x1="226.89" y1="85.29" x2="153.8" y2="12.19" gradientUnits="userSpaceOnUse">
      <stop offset="0" stop-color="#00d9ff"/>
      <stop offset=".25" stop-color="#008694"/>
      <stop offset=".5" stop-color="#0054c3"/>
      <stop offset=".75" stop-color="#7433d6"/>
      <stop offset="1" stop-color="#f0f"/>
    </linearGradient>
    <linearGradient id="linear-gradient-2" x1="163.6" y1="22.01" x2="207.57" y2="65.97" gradientUnits="userSpaceOnUse">
      <stop offset="0" stop-color="#fff"/>
      <stop offset="1" stop-color="#abb6c9"/>
    </linearGradient>
    <linearGradient id="linear-gradient-3" x1="302.48" y1="97.43" x2="205" y2="-.05" xlink:href="#linear-gradient"/>
    <linearGradient id="linear-gradient-4" x1="214.77" y1="9.81" x2="283.13" y2="78.17" xlink:href="#linear-gradient-2"/>
    <linearGradient id="linear-gradient-5" x1="390.42" y1="97.43" x2="292.94" y2="-.05" xlink:href="#linear-gradient"/>
    <linearGradient id="linear-gradient-6" x1="302.71" y1="9.81" x2="371.07" y2="78.17" xlink:href="#linear-gradient-2"/>
    <linearGradient id="linear-gradient-7" x1="255" y1="152.97" x2="208.71" y2="106.68" xlink:href="#linear-gradient"/>
    <linearGradient id="linear-gradient-8" x1="213.56" y1="111.53" x2="245.34" y2="143.32" xlink:href="#linear-gradient-2"/>
    <linearGradient id="linear-gradient-9" x1="300.19" y1="151.75" x2="251.45" y2="103.01" xlink:href="#linear-gradient"/>
    <linearGradient id="linear-gradient-10" x1="256.33" y1="107.94" x2="290.51" y2="142.12" xlink:href="#linear-gradient-2"/>
    <linearGradient id="linear-gradient-11" x1="336.93" y1="149.37" x2="293" y2="105.43" xlink:href="#linear-gradient"/>
    <linearGradient id="linear-gradient-12" x1="297.88" y1="110.36" x2="327.16" y2="139.65" xlink:href="#linear-gradient-2"/>
    <linearGradient id="linear-gradient-13" x1="60.9" y1="248.29" x2="-12.19" y2="175.19" xlink:href="#linear-gradient"/>
    <linearGradient id="linear-gradient-14" x1="-2.39" y1="185.01" x2="41.58" y2="228.97" xlink:href="#linear-gradient-2"/>
    <linearGradient id="linear-gradient-15" x1="136.45" y1="260.48" x2="43.87" y2="167.9" xlink:href="#linear-gradient"/>
    <linearGradient id="linear-gradient-16" x1="90.19" y1="199.56" x2="124.47" y2="233.83" xlink:href="#linear-gradient-2"/>
    <linearGradient id="linear-gradient-17" x1="53.61" y1="177.55" x2="107.4" y2="231.33" xlink:href="#linear-gradient-2"/>
    <linearGradient id="linear-gradient-18" x1="224.43" y1="260.43" x2="126.95" y2="162.95" xlink:href="#linear-gradient"/>
    <linearGradient id="linear-gradient-19" x1="136.72" y1="172.81" x2="205.08" y2="241.17" xlink:href="#linear-gradient-2"/>
    <linearGradient id="linear-gradient-20" x1="275.74" y1="248.29" x2="202.65" y2="175.19" xlink:href="#linear-gradient"/>
    <linearGradient id="linear-gradient-21" x1="212.46" y1="185" x2="256.43" y2="228.97" xlink:href="#linear-gradient-2"/>
    <linearGradient id="linear-gradient-22" x1="339.2" y1="243.38" x2="256.31" y2="160.5" xlink:href="#linear-gradient"/>
    <linearGradient id="linear-gradient-23" x1="266.06" y1="170.37" x2="319.73" y2="224.03" xlink:href="#linear-gradient-2"/>
    <linearGradient id="linear-gradient-24" x1="392.88" y1="248.29" x2="319.79" y2="175.19" xlink:href="#linear-gradient"/>
    <linearGradient id="linear-gradient-25" x1="329.59" y1="185" x2="373.56" y2="228.97" xlink:href="#linear-gradient-2"/>
    <linearGradient id="linear-gradient-26" x1="463.62" y1="255.67" x2="375.85" y2="167.9" xlink:href="#linear-gradient"/>
    <linearGradient id="linear-gradient-27" x1="385.59" y1="177.54" x2="444.26" y2="236.21" xlink:href="#linear-gradient-2"/>
    <linearGradient id="linear-gradient-28" x1="556.41" y1="260.44" x2="458.93" y2="162.95" xlink:href="#linear-gradient"/>
    <linearGradient id="linear-gradient-29" x1="468.7" y1="172.81" x2="537.06" y2="241.17" xlink:href="#linear-gradient-2"/>
  </defs>
  <text/>
  <path class="cls-27" d="M165.99,0v9.81h9.81V0h-9.81ZM165.99,9.81v9.57h9.81v-9.57h-9.81ZM165.99,19.38v9.81h9.81v-9.81h-9.81ZM165.99,29.19v9.82h9.81v-9.82h-9.81ZM165.99,39.01v9.76h9.81v-9.76h-9.81ZM165.99,48.77v9.82h9.81v-9.82h-9.81ZM165.99,58.59v9.76h9.81v-9.76h-9.81ZM165.99,68.35v9.82h9.81v-9.82h-9.81ZM165.99,78.17v9.57h9.81v-9.57h-9.81ZM175.8,0v9.81h9.77V0h-9.77ZM175.8,78.17v9.57h9.77v-9.57h-9.77ZM175.8,87.74v9.67h9.77v-9.67h-9.77ZM175.8,78.17v9.57h19.58v-9.57h-19.58ZM195.38,19.38v58.79h9.57V19.38h-9.57ZM195.38,0h-9.81v9.81h9.81V0ZM175.8,78.17v9.57h19.58v-9.57h-19.58ZM195.38,19.38v58.79h9.57V19.38h-9.57ZM185.57,78.17v9.57h9.81v-9.57h-9.81ZM185.57,87.74v9.67h9.81v-9.67h-9.81ZM195.38,0v19.38h9.57V0h-9.57ZM195.38,9.81v9.57h9.57v-9.57h-9.57ZM195.38,19.38v9.81h9.57v-9.81h-9.57ZM195.38,29.19v9.82h9.57v-9.82h-9.57ZM195.38,39.01v9.76h9.57v-9.76h-9.57ZM195.38,48.77v9.82h9.57v-9.82h-9.57ZM195.38,58.59v9.76h9.57v-9.76h-9.57ZM195.38,68.35v9.82h9.57v-9.82h-9.57ZM195.38,78.17v9.57h9.57v-9.57h-9.57ZM195.38,78.17v19.24h9.57v-19.24h-9.57ZM204.95,9.81v9.57h9.82v-9.57h-9.82ZM204.95,19.38v9.81h9.82v-9.81h-9.82ZM204.95,29.19v9.82h9.82v-9.82h-9.82ZM204.95,39.01v9.76h9.82v-9.76h-9.82ZM204.95,48.77v9.82h9.82v-9.82h-9.82ZM204.95,58.59v9.76h9.82v-9.76h-9.82ZM204.95,68.35v9.82h9.82v-9.82h-9.82ZM204.95,78.17v9.57h9.82v-9.57h-9.82ZM204.95,78.17v19.24h9.82v-19.24h-9.82Z"/>
  <rect class="cls-4" x="175.8" y="9.81" width="19.58" height="68.36"/>
  <path class="cls-11" d="M292.89,87.74v9.67h9.62v-9.67h-9.62ZM292.89,78.17v9.57h9.62v-9.57h-9.62ZM292.89,68.35v9.82h9.62v-9.82h-9.62ZM292.89,58.59v9.76h9.62v-9.76h-9.62ZM292.89,48.77v9.82h9.62v-9.82h-9.62ZM292.89,39.01v9.76h9.62v-9.76h-9.62ZM292.89,29.19v9.82h9.62v-9.82h-9.62ZM292.89,19.38v9.81h9.62v-9.81h-9.62ZM292.89,9.81v9.57h9.62v-9.57h-9.62ZM283.13,78.17v19.24h9.76v-19.24h-9.76ZM283.13,78.17v9.57h9.76v-9.57h-9.76ZM283.13,68.35v9.82h9.76v-9.82h-9.76ZM283.13,58.59v9.76h9.76v-9.76h-9.76ZM283.13,48.77v9.82h9.76v-9.82h-9.76ZM283.13,39.01v9.76h9.76v-9.76h-9.76ZM283.13,29.19v9.82h9.76v-9.82h-9.76ZM283.13,19.38v9.81h9.76v-9.81h-9.76ZM283.13,9.81v9.57h9.76v-9.57h-9.76ZM283.13,0v19.38h9.76V0h-9.76ZM273.31,87.74v9.67h9.82v-9.67h-9.82ZM273.31,78.17v9.57h9.82v-9.57h-9.82ZM283.13,19.38v58.79h9.76V19.38h-9.76ZM283.13,0h-9.82v9.81h9.82V0ZM263.55,78.17v9.57h19.58v-9.57h-19.58ZM263.55,58.59h-9.82v-9.82h-9.81v-9.76h-9.57v39.16h29.2v-19.58ZM253.73,29.19v9.82h9.82V9.81h-9.82v9.57h-9.81v9.81h9.81ZM243.92,9.81h-9.57v9.57h9.57v-9.57ZM214.77,78.17v9.57h19.58v-9.57h-19.58ZM214.77,9.81h-9.82v68.36h9.82V9.81ZM263.55,87.74v9.67h9.76v-9.67h-9.76ZM263.55,78.17v9.57h9.76v-9.57h-9.76ZM263.55,0v9.81h9.76V0h-9.76ZM253.73,78.17v9.57h9.82v-9.57h-9.82ZM243.92,68.35v9.82h19.63v-9.82h-19.63ZM243.92,58.59v9.76h19.63v-9.76h-19.63ZM253.73,29.19v9.82h9.82v-9.82h-9.82ZM253.73,19.38v9.81h9.82v-9.81h-9.82ZM253.73,9.81v9.57h9.82v-9.57h-9.82ZM253.73,0v9.81h9.82V0h-9.82ZM243.92,78.17v19.24h9.81v-19.24h-9.81ZM243.92,78.17v9.57h9.81v-9.57h-9.81ZM243.92,68.35v9.82h9.81v-9.82h-9.81ZM243.92,58.59v9.76h9.81v-9.76h-9.81ZM243.92,48.77v9.82h9.81v-9.82h-9.81ZM243.92,19.38v9.81h9.81v-9.81h-9.81ZM243.92,9.81v9.57h9.81v-9.57h-9.81ZM234.35,78.17v19.24h9.57v-19.24h-9.57ZM234.35,78.17v9.57h9.57v-9.57h-9.57ZM234.35,68.35v9.82h9.57v-9.82h-9.57ZM234.35,58.59v9.76h9.57v-9.76h-9.57ZM234.35,48.77v9.82h9.57v-9.82h-9.57ZM234.35,39.01v9.76h9.57v-9.76h-9.57ZM234.35,9.81v9.57h9.57v-9.57h-9.57ZM234.35,0v9.81h9.57V0h-9.57ZM224.53,87.74v9.67h9.82v-9.67h-9.82ZM224.53,78.17v9.57h9.82v-9.57h-9.82ZM224.53,0v9.81h9.82V0h-9.82ZM214.77,87.74v9.67h9.76v-9.67h-9.76ZM214.77,78.17v9.57h9.76v-9.57h-9.76ZM214.77,0v9.81h9.76V0h-9.76ZM204.95,78.17v9.57h9.82v-9.57h-9.82ZM204.95,68.35v9.82h9.82v-9.82h-9.82ZM204.95,58.59v9.76h9.82v-9.76h-9.82ZM204.95,48.77v9.82h9.82v-9.82h-9.82ZM204.95,39.01v9.76h9.82v-9.76h-9.82ZM204.95,29.19v9.82h9.82v-9.82h-9.82ZM204.95,19.38v9.81h9.82v-9.81h-9.82ZM204.95,9.81v9.57h9.82v-9.57h-9.82ZM204.95,0v9.81h9.82V0h-9.82Z"/>
  <polygon class="cls-10" points="283.13 9.81 283.13 78.17 263.55 78.17 263.55 58.59 253.73 58.59 253.73 48.77 243.92 48.77 243.92 39.01 234.35 39.01 234.35 78.17 214.77 78.17 214.77 9.81 234.35 9.81 234.35 19.38 243.92 19.38 243.92 29.19 253.73 29.19 253.73 39.01 263.55 39.01 263.55 9.81 283.13 9.81"/>
  <path class="cls-12" d="M380.83,87.74v9.67h9.62v-9.67h-9.62ZM371.07,78.17v9.57h19.38v-9.57h-19.38ZM371.07,68.35v9.82h19.38v-9.82h-19.38ZM380.83,29.19v9.82h9.62v-9.82h-9.62ZM371.07,19.38v9.81h19.38v-9.81h-19.38ZM371.07,9.81v9.57h19.38v-9.57h-19.38ZM371.07,87.74v9.67h9.76v-9.67h-9.76ZM371.07,78.17v9.57h9.76v-9.57h-9.76ZM371.07,68.35v9.82h9.76v-9.82h-9.76ZM361.25,58.59v9.76h19.58v-9.76h-19.58ZM371.07,29.19v19.58h9.76v-19.58h-9.76ZM371.07,29.19v9.82h9.76v-9.82h-9.76ZM371.07,19.38v9.81h9.76v-9.81h-9.76ZM371.07,9.81v9.57h9.76v-9.57h-9.76ZM371.07,0v9.81h9.76V0h-9.76ZM361.25,87.74v9.67h9.82v-9.67h-9.82ZM361.25,78.17v9.57h9.82v-9.57h-9.82ZM361.25,58.59v9.76h9.82v-9.76h-9.82ZM361.25,29.19v9.82h-9.76v19.58h19.58v-29.4h-9.82ZM361.25,29.19v19.58h9.82v-19.58h-9.82ZM361.25,29.19v9.82h9.82v-9.82h-9.82ZM361.25,19.38v9.81h9.82v-9.81h-9.82ZM361.25,29.19h9.82v-9.81h-9.82v9.81ZM361.25,0v9.81h9.82V0h-9.82ZM351.49,78.17v9.57h19.58v-9.57h-19.58ZM351.49,39.01h9.76v-9.82h-9.76v9.82ZM341.67,68.35v-9.76h-9.81v-9.82h-9.57v29.4h29.2v-9.82h-9.82ZM341.67,48.77h9.82v-9.76h-9.82v9.76ZM351.49,9.81h-9.82v9.57h9.82v-9.57ZM331.86,29.19h9.81v-9.81h-9.81v-9.57h-9.57v29.2h9.57v-9.82ZM302.71,78.17v9.57h19.58v-9.57h-19.58ZM302.71,9.81h-9.82v68.36h9.82V9.81ZM351.49,87.74v9.67h9.76v-9.67h-9.76ZM351.49,78.17v9.57h9.76v-9.57h-9.76ZM351.49,39.01v19.58h9.76v-19.58h-9.76ZM351.49,39.01v9.76h9.76v-9.76h-9.76ZM351.49,29.19v9.82h9.76v-9.82h-9.76ZM351.49,0v9.81h9.76V0h-9.76ZM341.67,78.17v9.57h9.82v-9.57h-9.82ZM331.86,68.35v9.82h19.63v-9.82h-19.63ZM341.67,39.01v9.76h9.82v-9.76h-9.82ZM341.67,9.81v9.57h9.82v-9.57h-9.82ZM341.67,0v9.81h9.82V0h-9.82ZM331.86,78.17v19.24h9.81v-19.24h-9.81ZM331.86,78.17v9.57h9.81v-9.57h-9.81ZM331.86,68.35v9.82h9.81v-9.82h-9.81ZM331.86,58.59v9.76h9.81v-9.76h-9.81ZM331.86,19.38v9.81h9.81v-9.81h-9.81ZM331.86,9.81v9.57h9.81v-9.57h-9.81ZM322.29,78.17v19.24h9.57v-19.24h-9.57ZM322.29,78.17v9.57h9.57v-9.57h-9.57ZM322.29,68.35v9.82h9.57v-9.82h-9.57ZM322.29,58.59v9.76h9.57v-9.76h-9.57ZM322.29,48.77v9.82h9.57v-9.82h-9.57ZM322.29,29.19v9.82h9.57v-9.82h-9.57ZM322.29,19.38v9.81h9.57v-9.81h-9.57ZM322.29,9.81v9.57h9.57v-9.57h-9.57ZM322.29,0v9.81h9.57V0h-9.57ZM312.47,87.74v9.67h9.82v-9.67h-9.82ZM312.47,78.17v9.57h9.82v-9.57h-9.82ZM312.47,0v9.81h9.82V0h-9.82ZM302.71,87.74v9.67h9.76v-9.67h-9.76ZM302.71,78.17v9.57h9.76v-9.57h-9.76ZM302.71,0v9.81h9.76V0h-9.76ZM292.89,78.17v9.57h9.82v-9.57h-9.82ZM292.89,68.35v9.82h9.82v-9.82h-9.82ZM292.89,58.59v9.76h9.82v-9.76h-9.82ZM292.89,48.77v9.82h9.82v-9.82h-9.82ZM292.89,39.01v9.76h9.82v-9.76h-9.82ZM292.89,29.19v9.82h9.82v-9.82h-9.82ZM292.89,19.38v9.81h9.82v-9.81h-9.82ZM292.89,9.81v9.57h9.82v-9.57h-9.82ZM292.89,0v9.81h9.82V0h-9.82Z"/>
  <polygon class="cls-24" points="341.67 39.01 341.67 48.77 351.49 48.77 351.49 58.59 361.25 58.59 361.25 68.35 371.07 68.35 371.07 78.17 351.49 78.17 351.49 68.35 341.67 68.35 341.67 58.59 331.86 58.59 331.86 48.77 322.29 48.77 322.29 78.17 302.71 78.17 302.71 9.81 322.29 9.81 322.29 39.01 331.86 39.01 331.86 29.19 341.67 29.19 341.67 19.38 351.49 19.38 351.49 9.81 371.07 9.81 371.07 19.38 361.25 19.38 361.25 29.19 351.49 29.19 351.49 39.01 341.67 39.01"/>
  <path class="cls-20" d="M251.43,146.91v4.83h4.81v-4.83h-4.81ZM251.43,142.12v4.79h4.81v-4.79h-4.81ZM251.43,137.21v4.91h4.81v-4.91h-4.81ZM251.43,132.33v4.88h4.81v-4.88h-4.81ZM251.43,127.42v4.91h4.81v-4.91h-4.81ZM251.43,122.54v4.88h4.81v-4.88h-4.81ZM251.43,117.63v4.91h4.81v-4.91h-4.81ZM251.43,112.73v4.9h4.81v-4.9h-4.81ZM246.54,142.12v9.62h4.89v-9.62h-4.89ZM246.54,142.12v4.79h4.89v-4.79h-4.89ZM246.54,137.21v4.91h4.89v-4.91h-4.89ZM246.54,132.33v4.88h4.89v-4.88h-4.89ZM246.54,127.42v4.91h4.89v-4.91h-4.89ZM246.54,122.54v4.88h4.89v-4.88h-4.89ZM246.54,117.63v4.91h4.89v-4.91h-4.89ZM246.54,112.73v4.9h4.89v-4.9h-4.89ZM241.64,107.94v4.79h4.9v4.9h4.89v-9.69h-9.79ZM241.64,146.91v4.83h4.9v-4.83h-4.9ZM241.64,142.12v4.79h4.9v-4.79h-4.9ZM241.64,107.94v4.79h4.9v-4.79h-4.9ZM241.64,103.03v4.91h4.9v-4.91h-4.9ZM236.75,146.91v4.83h4.89v-4.83h-4.89ZM236.75,142.12v4.79h4.89v-4.79h-4.89ZM246.54,117.63v24.49h4.89v-24.49h-4.89ZM236.75,142.12v4.79h9.79v-4.79h-9.79ZM241.64,103.03h-4.89v4.91h4.89v-4.91ZM236.75,132.33h-14.6v9.79h14.6v-9.79ZM236.75,127.42v-14.69h-14.6v14.69h14.6ZM212.36,142.12v4.79h9.79v-4.79h-9.79ZM217.25,107.94h-4.89v4.79h4.89v-4.79ZM231.85,142.12v4.79h4.9v-4.79h-4.9ZM226.94,137.21v4.91h9.81v-4.91h-9.81ZM231.85,132.33v4.88h4.9v-4.88h-4.9ZM231.85,122.54v4.88h4.9v-4.88h-4.9ZM226.94,117.63v4.91h9.81v-4.91h-9.81ZM231.85,112.73v4.9h4.9v-4.9h-4.9ZM231.85,103.03v4.91h4.9v-4.91h-4.9ZM226.94,142.12v9.62h4.91v-9.62h-4.91ZM226.94,142.12v4.79h4.91v-4.79h-4.91ZM226.94,137.21v4.91h4.91v-4.91h-4.91ZM226.94,132.33v4.88h4.91v-4.88h-4.91ZM226.94,122.54v4.88h4.91v-4.88h-4.91ZM226.94,117.63v4.91h4.91v-4.91h-4.91ZM226.94,112.73v4.9h4.91v-4.9h-4.91ZM226.94,103.03v4.91h4.91v-4.91h-4.91ZM222.15,142.12v9.62h4.79v-9.62h-4.79ZM222.15,142.12v4.79h4.79v-4.79h-4.79ZM222.15,137.21v4.91h4.79v-4.91h-4.79ZM222.15,132.33v4.88h4.79v-4.88h-4.79ZM222.15,122.54v4.88h4.79v-4.88h-4.79ZM222.15,117.63v4.91h4.79v-4.91h-4.79ZM222.15,112.73v4.9h4.79v-4.9h-4.79ZM222.15,103.03v4.91h4.79v-4.91h-4.79ZM217.25,146.91v4.83h4.9v-4.83h-4.9ZM217.25,142.12v4.79h4.9v-4.79h-4.9ZM217.25,103.03v4.91h4.9v-4.91h-4.9ZM212.36,146.91v4.83h4.89v-4.83h-4.89ZM212.36,142.12v4.79h4.89v-4.79h-4.89ZM212.36,107.94v4.79h4.89v-4.79h-4.89ZM212.36,103.03v4.91h4.89v-4.91h-4.89ZM207.46,142.12v4.79h4.9v-4.79h-4.9ZM207.46,137.21v4.91h4.9v-4.91h-4.9ZM207.46,132.33v4.88h4.9v-4.88h-4.9ZM207.46,127.42v4.91h4.9v-4.91h-4.9ZM207.46,122.54v4.88h4.9v-4.88h-4.9ZM207.46,117.63v4.91h4.9v-4.91h-4.9ZM207.46,112.73v4.9h4.9v-4.9h-4.9ZM207.46,107.94v4.79h4.9v-4.79h-4.9Z"/>
  <path class="cls-15" d="M241.64,112.73v-4.79h-24.39v4.79h-4.89v29.39h9.79v-9.79h14.6v9.79h9.79v-29.39h-4.9ZM236.75,127.42h-14.6v-14.69h14.6v14.69Z"/>
  <path class="cls-21" d="M295.4,146.91v4.83h4.8v-4.83h-4.8ZM295.4,142.12v4.79h4.8v-4.79h-4.8ZM295.4,137.21v4.91h4.8v-4.91h-4.8ZM295.4,132.33v4.88h4.8v-4.88h-4.8ZM295.4,127.42v4.91h4.8v-4.91h-4.8ZM295.4,122.54v4.88h4.8v-4.88h-4.8ZM295.4,117.63v4.91h4.8v-4.91h-4.8ZM295.4,112.73v4.9h4.8v-4.9h-4.8ZM295.4,107.94v4.79h4.8v-4.79h-4.8ZM290.51,142.12v9.62h4.89v-9.62h-4.89ZM290.51,142.12v4.79h4.89v-4.79h-4.89ZM290.51,137.21v4.91h4.89v-4.91h-4.89ZM290.51,132.33v4.88h4.89v-4.88h-4.89ZM290.51,127.42v4.91h4.89v-4.91h-4.89ZM290.51,122.54v4.88h4.89v-4.88h-4.89ZM290.51,117.63v4.91h4.89v-4.91h-4.89ZM290.51,112.73v4.9h4.89v-4.9h-4.89ZM290.51,107.94v4.79h4.89v-4.79h-4.89ZM290.51,103.03v9.7h4.89v-9.7h-4.89ZM285.61,146.91v4.83h4.9v-4.83h-4.9ZM285.61,142.12v4.79h4.9v-4.79h-4.9ZM290.51,112.73v29.39h4.89v-29.39h-4.89ZM290.51,103.03h-4.9v4.91h4.9v-4.91ZM280.72,142.12v4.79h9.79v-4.79h-9.79ZM280.72,132.33h-4.9v-4.91h-4.91v-4.88h-4.79v19.58h14.6v-9.79ZM275.82,117.63v4.91h4.9v-14.6h-4.9v4.79h-4.91v4.9h4.91ZM270.91,107.94h-4.79v4.79h4.79v-4.79ZM256.33,142.12v4.79h9.79v-4.79h-9.79ZM256.33,107.94h-4.9v34.18h4.9v-34.18ZM280.72,146.91v4.83h4.89v-4.83h-4.89ZM280.72,142.12v4.79h4.89v-4.79h-4.89ZM280.72,103.03v4.91h4.89v-4.91h-4.89ZM275.82,142.12v4.79h4.9v-4.79h-4.9ZM270.91,137.21v4.91h9.81v-4.91h-9.81ZM270.91,132.33v4.88h9.81v-4.88h-9.81ZM275.82,117.63v4.91h4.9v-4.91h-4.9ZM275.82,112.73v4.9h4.9v-4.9h-4.9ZM275.82,107.94v4.79h4.9v-4.79h-4.9ZM275.82,103.03v4.91h4.9v-4.91h-4.9ZM270.91,142.12v9.62h4.91v-9.62h-4.91ZM270.91,142.12v4.79h4.91v-4.79h-4.91ZM270.91,137.21v4.91h4.91v-4.91h-4.91ZM270.91,132.33v4.88h4.91v-4.88h-4.91ZM270.91,127.42v4.91h4.91v-4.91h-4.91ZM270.91,112.73v4.9h4.91v-4.9h-4.91ZM270.91,107.94v4.79h4.91v-4.79h-4.91ZM266.12,142.12v9.62h4.79v-9.62h-4.79ZM266.12,142.12v4.79h4.79v-4.79h-4.79ZM266.12,137.21v4.91h4.79v-4.91h-4.79ZM266.12,132.33v4.88h4.79v-4.88h-4.79ZM266.12,127.42v4.91h4.79v-4.91h-4.79ZM266.12,122.54v4.88h4.79v-4.88h-4.79ZM266.12,107.94v4.79h4.79v-4.79h-4.79ZM266.12,103.03v4.91h4.79v-4.91h-4.79ZM261.22,146.91v4.83h4.9v-4.83h-4.9ZM261.22,142.12v4.79h4.9v-4.79h-4.9ZM261.22,103.03v4.91h4.9v-4.91h-4.9ZM256.33,146.91v4.83h4.89v-4.83h-4.89ZM256.33,142.12v4.79h4.89v-4.79h-4.89ZM256.33,103.03v4.91h4.89v-4.91h-4.89ZM251.43,142.12v4.79h4.9v-4.79h-4.9ZM251.43,137.21v4.91h4.9v-4.91h-4.9ZM251.43,132.33v4.88h4.9v-4.88h-4.9ZM251.43,127.42v4.91h4.9v-4.91h-4.9ZM251.43,122.54v4.88h4.9v-4.88h-4.9ZM251.43,117.63v4.91h4.9v-4.91h-4.9ZM251.43,112.73v4.9h4.9v-4.9h-4.9ZM251.43,107.94v4.79h4.9v-4.79h-4.9ZM251.43,103.03v4.91h4.9v-4.91h-4.9Z"/>
  <polygon class="cls-6" points="290.51 107.94 290.51 142.12 280.72 142.12 280.72 132.33 275.82 132.33 275.82 127.42 270.91 127.42 270.91 122.54 266.12 122.54 266.12 142.12 256.33 142.12 256.33 107.94 266.12 107.94 266.12 112.73 270.91 112.73 270.91 117.63 275.82 117.63 275.82 122.54 280.72 122.54 280.72 107.94 290.51 107.94"/>
  <path class="cls-22" d="M329.58,137.21v4.91h14.6v-4.91h-14.6ZM334.48,132.33v4.88h9.7v-4.88h-9.7ZM334.48,127.42v4.91h9.7v-4.91h-9.7ZM334.48,122.54v4.88h9.7v-4.88h-9.7ZM334.48,117.63v4.91h9.7v-4.91h-9.7ZM334.48,142.12v4.79h4.89v-4.79h-4.89ZM329.58,137.21v4.91h9.79v-4.91h-9.79ZM334.48,132.33v4.88h4.89v-4.88h-4.89ZM334.48,127.42v4.91h4.89v-4.91h-4.89ZM334.48,122.54v4.88h4.89v-4.88h-4.89ZM334.48,117.63v4.91h4.89v-4.91h-4.89ZM329.58,112.73v4.9h9.79v-4.9h-9.79ZM329.58,142.12v9.62h4.9v-9.62h-4.9ZM329.58,142.12v4.79h4.9v-4.79h-4.9ZM329.58,137.21v4.91h4.9v-4.91h-4.9ZM329.58,132.33v4.88h4.9v-4.88h-4.9ZM329.58,112.73v4.9h4.9v-4.9h-4.9ZM324.69,107.94v4.79h9.79v-4.79h-9.79ZM324.69,142.12v9.62h4.89v-9.62h-4.89ZM324.69,142.12v4.79h4.89v-4.79h-4.89ZM324.69,137.21v4.91h4.89v-4.91h-4.89ZM324.69,107.94v4.79h4.89v-4.79h-4.89ZM324.69,103.03v4.91h4.89v-4.91h-4.89ZM319.79,146.91v4.83h4.9v-4.83h-4.9ZM319.79,142.12v4.79h4.9v-4.79h-4.9ZM314.88,127.42v4.91h9.81v-4.91h-9.81ZM314.88,122.54v4.88h9.81v-4.88h-9.81ZM314.88,117.63v4.91h9.81v-4.91h-9.81ZM329.58,132.33v4.88h4.9v-4.88h-4.9ZM324.69,142.12h4.89v-4.91h-4.89v4.91ZM324.69,103.03h-4.9v4.91h4.9v-4.91ZM300.3,142.12v4.79h24.39v-4.79h-24.39ZM319.79,137.21v-4.88h4.9v-14.7h-4.9v-4.9h-9.7v24.48h9.7ZM300.3,107.94h-4.9v34.18h4.9v-34.18ZM314.88,146.91v4.83h4.91v-4.83h-4.91ZM314.88,142.12v4.79h4.91v-4.79h-4.91ZM314.88,132.33v4.88h4.91v-4.88h-4.91ZM314.88,127.42v4.91h4.91v-4.91h-4.91ZM314.88,122.54v4.88h4.91v-4.88h-4.91ZM314.88,117.63v4.91h4.91v-4.91h-4.91ZM314.88,112.73v4.9h4.91v-4.9h-4.91ZM314.88,103.03v4.91h4.91v-4.91h-4.91ZM310.09,146.91v4.83h4.79v-4.83h-4.79ZM310.09,142.12v4.79h4.79v-4.79h-4.79ZM310.09,132.33v4.88h4.79v-4.88h-4.79ZM310.09,127.42v4.91h4.79v-4.91h-4.79ZM310.09,122.54v4.88h4.79v-4.88h-4.79ZM310.09,117.63v4.91h4.79v-4.91h-4.79ZM310.09,112.73v4.9h4.79v-4.9h-4.79ZM310.09,103.03v4.91h4.79v-4.91h-4.79ZM305.19,146.91v4.83h4.9v-4.83h-4.9ZM305.19,142.12v4.79h4.9v-4.79h-4.9ZM305.19,103.03v4.91h4.9v-4.91h-4.9ZM300.3,146.91v4.83h4.89v-4.83h-4.89ZM300.3,142.12v4.79h4.89v-4.79h-4.89ZM300.3,103.03v4.91h4.89v-4.91h-4.89ZM295.4,142.12v4.79h4.9v-4.79h-4.9ZM295.4,137.21v4.91h4.9v-4.91h-4.9ZM295.4,132.33v4.88h4.9v-4.88h-4.9ZM295.4,127.42v4.91h4.9v-4.91h-4.9ZM295.4,122.54v4.88h4.9v-4.88h-4.9ZM295.4,117.63v4.91h4.9v-4.91h-4.9ZM295.4,112.73v4.9h4.9v-4.9h-4.9ZM295.4,107.94v4.79h4.9v-4.79h-4.9ZM295.4,103.03v4.91h4.9v-4.91h-4.9Z"/>
  <path class="cls-7" d="M329.58,117.63v-4.9h-4.89v-4.79h-24.39v34.18h24.39v-4.91h4.89v-4.88h4.9v-14.7h-4.9ZM324.69,132.33h-4.9v4.88h-9.7v-24.48h9.7v4.9h4.9v14.7Z"/>
  <path class="cls-2" d="M0,163v9.81h9.81v-9.81H0ZM0,172.81v9.57h9.81v-9.57H0ZM0,182.38v9.81h9.81v-9.81H0ZM0,192.19v9.82h9.81v-9.82H0ZM0,202.01v9.76h9.81v-9.76H0ZM0,211.77v9.82h9.81v-9.82H0ZM0,221.59v9.76h9.81v-9.76H0ZM0,231.35v9.82h9.81v-9.82H0ZM0,241.17v9.57h19.58v-9.57H0ZM9.81,163v9.81h9.77v-9.81h-9.77ZM9.81,241.17v9.57h9.77v-9.57h-9.77ZM9.81,250.74v9.67h9.77v-9.67h-9.77ZM9.81,241.17v9.57h19.58v-9.57H9.81ZM29.39,192.19v48.98h9.57v-48.98h-9.57ZM29.39,163h-9.81v9.81h9.81v-9.81ZM29.39,182.38v58.79h9.57v-58.79h-9.57ZM19.58,241.17v9.57h9.81v-9.57h-9.81ZM19.58,241.17v19.24h9.81v-19.24h-9.81ZM29.39,163v29.19h9.57v-29.19h-9.57ZM29.39,172.81v19.38h9.57v-19.38h-9.57ZM29.39,182.38v9.81h9.57v-9.81h-9.57ZM29.39,192.19v9.82h9.57v-9.82h-9.57ZM29.39,202.01v9.76h9.57v-9.76h-9.57ZM29.39,211.77v9.82h9.57v-9.82h-9.57ZM29.39,221.59v9.76h9.57v-9.76h-9.57ZM29.39,231.35v9.82h9.57v-9.82h-9.57ZM29.39,241.17v9.57h9.57v-9.57h-9.57ZM29.39,241.17v19.24h9.57v-19.24h-9.57ZM38.96,172.81v9.57h9.82v-9.57h-9.82ZM38.96,182.38v9.81h9.82v-9.81h-9.82ZM38.96,192.19v9.82h9.82v-9.82h-9.82ZM38.96,202.01v9.76h9.82v-9.76h-9.82ZM38.96,211.77v9.82h9.82v-9.82h-9.82ZM38.96,221.59v9.76h9.82v-9.76h-9.82ZM38.96,231.35v9.82h9.82v-9.82h-9.82ZM38.96,241.17v9.57h9.82v-9.57h-9.82ZM38.96,241.17v19.24h9.82v-19.24h-9.82Z"/>
  <rect class="cls-16" x="9.81" y="172.81" width="19.58" height="68.36"/>
  <path class="cls-1" d="M38.96,172.81v9.57h9.82v-9.57h-9.82ZM38.96,182.38v9.81h9.82v-9.81h-9.82ZM38.96,192.19v9.82h9.82v-9.82h-9.82ZM38.96,202.01v9.76h9.82v-9.76h-9.82ZM38.96,211.77v9.82h9.82v-9.82h-9.82ZM38.96,221.59v9.76h9.82v-9.76h-9.82ZM38.96,231.35v9.82h9.82v-9.82h-9.82ZM48.78,163v19.38h9.76v-19.38h-9.76ZM48.78,172.81v9.57h9.76v-9.57h-9.76ZM38.96,231.35v9.82h19.58v-9.82h-19.58ZM58.54,241.17v-9.82h-19.58v9.82h9.82v9.57h19.58v-9.57h-9.82ZM58.54,163v9.81h9.82v-9.81h-9.82ZM58.54,241.17v9.57h9.82v-9.57h-9.82ZM58.54,250.74v9.67h9.82v-9.67h-9.82ZM68.36,163v9.81h9.57v-9.81h-9.57ZM68.36,182.38v9.81h9.57v-9.81h-9.57ZM68.36,192.19v9.82h9.57v-9.82h-9.57ZM68.36,202.01v9.76h9.57v-9.76h-9.57ZM68.36,211.77v9.82h19.38v-9.82h-19.38ZM68.36,221.59v9.76h9.57v-9.76h-9.57ZM68.36,241.17v9.57h9.57v-9.57h-9.57ZM68.36,241.17v19.24h9.57v-19.24h-9.57ZM77.93,163v9.81h9.81v-9.81h-9.81ZM77.93,182.38v19.63h9.81v-19.63h-9.81ZM77.93,192.19v9.82h9.81v-9.82h-9.81ZM77.93,202.01v9.76h9.81v-9.76h-9.81ZM77.93,211.77v9.82h9.81v-9.82h-9.81ZM77.93,221.59v9.76h9.81v-9.76h-9.81ZM77.93,241.17v9.57h9.81v-9.57h-9.81ZM77.93,241.17v19.24h9.81v-19.24h-9.81ZM87.74,163v9.81h9.82v-9.81h-9.82ZM87.74,182.38v9.81h9.82v-9.81h-9.82ZM87.74,192.19v9.82h9.82v-9.82h-9.82ZM87.74,211.77v9.82h9.82v-9.82h-9.82ZM87.74,221.59v9.76h9.82v-9.76h-9.82ZM87.74,241.17v9.57h9.82v-9.57h-9.82ZM87.74,241.17v19.24h9.82v-19.24h-9.82ZM48.78,172.81v9.57h9.76v-9.57h-9.76ZM48.78,231.35v-48.97h-9.82v58.79h19.58v-9.82h-9.76ZM58.54,241.17v9.57h39.02v-9.57h-39.02ZM97.56,192.19v9.82h19.58v-9.82h-19.58ZM107.32,241.17v-9.82h-9.76v9.82h9.76ZM107.32,163h-9.76v9.81h9.76v-9.81ZM68.36,182.38v48.97h29.2v-9.76h-9.82v-9.82h-9.81v-9.76h9.81v-9.82h9.82v-9.81h-29.2ZM38.96,231.35h9.82v-48.97h-9.82v48.97ZM97.56,231.35v9.82h9.76v-9.82h-9.76ZM97.56,192.19v-9.81h-29.2v48.97h29.2v-19.58h-9.82v-9.76h29.4v-9.82h-19.58ZM117.14,202.01v39.16h9.76v-39.16h-9.76ZM97.56,192.19v9.82h9.76v-9.82h-9.76ZM97.56,231.35v9.82h9.76v-9.82h-9.76ZM97.56,241.17v9.57h9.76v-9.57h-9.76ZM97.56,241.17v19.24h9.76v-19.24h-9.76ZM107.32,163v9.81h9.82v-9.81h-9.82ZM107.32,172.81v9.57h9.82v-9.57h-9.82ZM77.93,202.01v9.76h9.81v-9.76h-9.81ZM87.74,192.19v9.82h9.82v-9.82h-9.82ZM87.74,211.77v9.82h9.82v-9.82h-9.82ZM107.32,192.19v9.82h9.82v-9.82h-9.82ZM117.14,202.01v39.16h9.76v-39.16h-9.76ZM117.14,202.01v39.16h9.76v-39.16h-9.76ZM107.32,250.74h9.82v-9.57h-9.82v9.57ZM97.56,221.59v-9.82h-9.82v9.82h9.82ZM87.74,202.01h9.82v-9.82h-9.82v9.82ZM77.93,211.77h9.81v-9.76h-9.81v9.76ZM117.14,202.01v39.16h9.76v-39.16h-9.76ZM107.32,260.41h9.82v-19.24h-9.82v19.24ZM97.56,221.59v-9.82h-9.82v9.82h9.82ZM87.74,202.01h9.82v-9.82h-9.82v9.82ZM77.93,211.77h9.81v-9.76h-9.81v9.76ZM107.32,172.81v9.57h9.82v19.63h9.76v-29.2h-19.58ZM117.14,182.38v19.63h9.76v-19.63h-9.76ZM117.14,192.19v9.82h9.76v-9.82h-9.76ZM117.14,202.01v9.76h9.76v-9.76h-9.76ZM117.14,211.77v9.82h9.76v-9.82h-9.76ZM117.14,221.59v9.76h9.76v-9.76h-9.76ZM117.14,231.35v9.82h9.76v-9.82h-9.76ZM117.14,241.17v9.57h9.76v-9.57h-9.76ZM117.14,241.17v19.24h9.76v-19.24h-9.76ZM126.9,182.38v9.81h9.62v-9.81h-9.62ZM126.9,192.19v9.82h9.62v-9.82h-9.62ZM126.9,202.01v9.76h9.62v-9.76h-9.62ZM126.9,211.77v9.82h9.62v-9.82h-9.62ZM126.9,221.59v9.76h9.62v-9.76h-9.62ZM126.9,231.35v9.82h9.62v-9.82h-9.62ZM126.9,241.17v9.57h9.62v-9.57h-9.62ZM126.9,250.74v9.67h9.62v-9.67h-9.62Z"/>
  <polygon class="cls-26" points="117.14 202.01 117.14 241.17 107.32 241.17 107.32 231.35 97.56 231.35 97.56 211.77 87.74 211.77 87.74 202.01 117.14 202.01"/>
  <polygon class="cls-19" points="117.14 182.38 117.14 192.19 97.56 192.19 97.56 182.38 68.36 182.38 68.36 231.35 97.56 231.35 97.56 241.17 58.54 241.17 58.54 231.35 48.78 231.35 48.78 182.38 58.54 182.38 58.54 172.81 107.32 172.81 107.32 182.38 117.14 182.38"/>
  <path class="cls-29" d="M214.84,250.74v9.67h9.62v-9.67h-9.62ZM214.84,241.17v9.57h9.62v-9.57h-9.62ZM214.84,231.35v9.82h9.62v-9.82h-9.62ZM214.84,221.59v9.76h9.62v-9.76h-9.62ZM214.84,211.77v9.82h9.62v-9.82h-9.62ZM214.84,202.01v9.76h9.62v-9.76h-9.62ZM214.84,192.19v9.82h9.62v-9.82h-9.62ZM214.84,182.38v9.81h9.62v-9.81h-9.62ZM214.84,172.81v9.57h9.62v-9.57h-9.62ZM205.08,241.17v19.24h9.76v-19.24h-9.76ZM205.08,241.17v9.57h9.76v-9.57h-9.76ZM205.08,231.35v9.82h9.76v-9.82h-9.76ZM205.08,221.59v9.76h9.76v-9.76h-9.76ZM205.08,211.77v9.82h9.76v-9.82h-9.76ZM205.08,202.01v9.76h9.76v-9.76h-9.76ZM205.08,192.19v9.82h9.76v-9.82h-9.76ZM205.08,182.38v9.81h9.76v-9.81h-9.76ZM205.08,172.81v9.57h9.76v-9.57h-9.76ZM205.08,163v19.38h9.76v-19.38h-9.76ZM195.26,250.74v9.67h9.82v-9.67h-9.82ZM195.26,241.17v9.57h9.82v-9.57h-9.82ZM205.08,182.38v58.79h9.76v-58.79h-9.76ZM205.08,163h-9.82v9.81h9.82v-9.81ZM185.5,241.17v9.57h19.58v-9.57h-19.58ZM185.5,221.59h-9.82v-9.82h-9.81v-9.76h-9.57v39.16h29.2v-19.58ZM175.68,192.19v9.82h9.82v-29.2h-9.82v9.57h-9.81v9.81h9.81ZM165.87,172.81h-9.57v9.57h9.57v-9.57ZM136.72,241.17v9.57h19.58v-9.57h-19.58ZM136.72,172.81h-9.82v68.36h9.82v-68.36ZM185.5,250.74v9.67h9.76v-9.67h-9.76ZM185.5,241.17v9.57h9.76v-9.57h-9.76ZM185.5,163v9.81h9.76v-9.81h-9.76ZM175.68,241.17v9.57h9.82v-9.57h-9.82ZM165.87,231.35v9.82h19.63v-9.82h-19.63ZM165.87,221.59v9.76h19.63v-9.76h-19.63ZM175.68,192.19v9.82h9.82v-9.82h-9.82ZM175.68,182.38v9.81h9.82v-9.81h-9.82ZM175.68,172.81v9.57h9.82v-9.57h-9.82ZM175.68,163v9.81h9.82v-9.81h-9.82ZM165.87,241.17v19.24h9.81v-19.24h-9.81ZM165.87,241.17v9.57h9.81v-9.57h-9.81ZM165.87,231.35v9.82h9.81v-9.82h-9.81ZM165.87,221.59v9.76h9.81v-9.76h-9.81ZM165.87,211.77v9.82h9.81v-9.82h-9.81ZM165.87,182.38v9.81h9.81v-9.81h-9.81ZM165.87,172.81v9.57h9.81v-9.57h-9.81ZM156.3,241.17v19.24h9.57v-19.24h-9.57ZM156.3,241.17v9.57h9.57v-9.57h-9.57ZM156.3,231.35v9.82h9.57v-9.82h-9.57ZM156.3,221.59v9.76h9.57v-9.76h-9.57ZM156.3,211.77v9.82h9.57v-9.82h-9.57ZM156.3,202.01v9.76h9.57v-9.76h-9.57ZM156.3,172.81v9.57h9.57v-9.57h-9.57ZM156.3,163v9.81h9.57v-9.81h-9.57ZM146.48,250.74v9.67h9.82v-9.67h-9.82ZM146.48,241.17v9.57h9.82v-9.57h-9.82ZM146.48,163v9.81h9.82v-9.81h-9.82ZM136.72,250.74v9.67h9.76v-9.67h-9.76ZM136.72,241.17v9.57h9.76v-9.57h-9.76ZM136.72,163v9.81h9.76v-9.81h-9.76ZM126.9,241.17v9.57h9.82v-9.57h-9.82ZM126.9,231.35v9.82h9.82v-9.82h-9.82ZM126.9,221.59v9.76h9.82v-9.76h-9.82ZM126.9,211.77v9.82h9.82v-9.82h-9.82ZM126.9,202.01v9.76h9.82v-9.76h-9.82ZM126.9,192.19v9.82h9.82v-9.82h-9.82ZM126.9,182.38v9.81h9.82v-9.81h-9.82ZM126.9,172.81v9.57h9.82v-9.57h-9.82ZM126.9,163v9.81h9.82v-9.81h-9.82Z"/>
  <polygon class="cls-23" points="205.08 172.81 205.08 241.17 185.5 241.17 185.5 221.59 175.68 221.59 175.68 211.77 165.87 211.77 165.87 202.01 156.3 202.01 156.3 241.17 136.72 241.17 136.72 172.81 156.3 172.81 156.3 182.38 165.87 182.38 165.87 192.19 175.68 192.19 175.68 202.01 185.5 202.01 185.5 172.81 205.08 172.81"/>
  <path class="cls-18" d="M214.84,163v19.38h9.82v-19.38h-9.82ZM214.84,172.81v9.57h9.82v-9.57h-9.82ZM214.84,182.38v9.81h9.82v-9.81h-9.82ZM214.84,192.19v9.82h9.82v-9.82h-9.82ZM214.84,202.01v9.76h9.82v-9.76h-9.82ZM214.84,211.77v9.82h9.82v-9.82h-9.82ZM214.84,221.59v9.76h9.82v-9.76h-9.82ZM214.84,231.35v9.82h9.82v-9.82h-9.82ZM224.66,241.17v-9.82h-9.82v19.39h19.58v-9.57h-9.76ZM224.66,163v9.81h9.76v-9.81h-9.76ZM224.66,241.17v9.57h9.76v-9.57h-9.76ZM224.66,250.74v9.67h9.76v-9.67h-9.76ZM214.84,172.81v68.36h9.82v-68.36h-9.82ZM224.66,241.17v9.57h19.58v-9.57h-19.58ZM234.42,163v9.81h9.82v-9.81h-9.82ZM214.84,182.38v48.97h9.82v-48.97h-9.82ZM244.24,182.38v58.79h9.57v-58.79h-9.57ZM234.42,241.17v9.57h9.82v-9.57h-9.82ZM234.42,241.17v19.24h9.82v-19.24h-9.82ZM244.24,163v29.19h9.57v-29.19h-9.57ZM244.24,172.81v19.38h9.57v-19.38h-9.57ZM244.24,182.38v9.81h9.57v-9.81h-9.57ZM244.24,192.19v9.82h9.57v-9.82h-9.57ZM244.24,202.01v9.76h9.57v-9.76h-9.57ZM244.24,211.77v9.82h9.57v-9.82h-9.57ZM244.24,221.59v9.76h9.57v-9.76h-9.57ZM244.24,231.35v9.82h9.57v-9.82h-9.57ZM244.24,241.17v9.57h9.57v-9.57h-9.57ZM244.24,241.17v19.24h9.57v-19.24h-9.57ZM253.81,172.81v9.57h9.81v-9.57h-9.81ZM253.81,182.38v9.81h9.81v-9.81h-9.81ZM253.81,182.38v9.81h-9.57v9.82h19.38v-19.63h-9.81ZM244.24,202.01v9.76h19.38v-9.76h-19.38ZM244.24,211.77v9.82h19.38v-9.82h-19.38ZM244.24,221.59v9.76h19.38v-9.76h-19.38ZM244.24,231.35v9.82h19.38v-9.82h-19.38ZM253.81,241.17v9.57h9.81v-9.57h-9.81ZM253.81,250.74v9.67h9.81v-9.67h-9.81Z"/>
  <rect class="cls-25" x="224.66" y="172.81" width="19.58" height="68.36"/>
  <path class="cls-13" d="M331.98,192.19v9.82h9.77v-9.82h-9.77ZM331.98,182.38v9.81h9.77v-9.81h-9.77ZM331.98,172.81v9.57h9.77v-9.57h-9.77ZM322.17,182.38v19.63h9.81v-19.63h-9.81ZM322.17,182.38v9.81h9.81v-9.81h-9.81ZM322.17,172.81v9.57h9.81v-9.57h-9.81ZM322.17,163v19.38h9.81v-19.38h-9.81ZM312.4,250.74v9.67h9.77v-9.67h-9.77ZM312.4,241.17v9.57h9.77v-9.57h-9.77ZM312.4,231.35v9.82h9.77v-9.82h-9.77ZM312.4,221.59v9.76h9.77v-9.76h-9.77ZM312.4,211.77v9.82h9.77v-9.82h-9.77ZM312.4,192.19v19.58h9.77v-19.58h-9.77ZM312.4,192.19v9.82h9.77v-9.82h-9.77ZM312.4,182.38v9.81h9.77v-9.81h-9.77ZM312.4,163v9.81h9.77v-9.81h-9.77ZM302.59,182.38v58.79h9.81v-48.98h9.77v-9.81h-19.58ZM283.2,241.17v9.57h19.39v-9.57h-19.39ZM283.2,182.38h-9.81v9.81h9.81v-9.81ZM253.81,182.38h9.81v-9.57h-9.81v9.57ZM302.59,241.17v19.24h9.81v-19.24h-9.81ZM302.59,241.17v9.57h9.81v-9.57h-9.81ZM302.59,231.35v9.82h9.81v-9.82h-9.81ZM302.59,221.59v9.76h9.81v-9.76h-9.81ZM302.59,211.77v9.82h9.81v-9.82h-9.81ZM302.59,202.01v9.76h9.81v-9.76h-9.81ZM302.59,192.19v9.82h9.81v-9.82h-9.81ZM302.59,182.38v9.81h9.81v-9.81h-9.81ZM302.59,163v9.81h9.81v-9.81h-9.81ZM292.77,250.74v9.67h9.82v-9.67h-9.82ZM292.77,241.17v9.57h9.82v-9.57h-9.82ZM292.77,163v9.81h9.82v-9.81h-9.82ZM283.2,250.74v9.67h9.57v-9.67h-9.57ZM283.2,241.17v9.57h9.57v-9.57h-9.57ZM283.2,163v9.81h9.57v-9.81h-9.57ZM273.39,241.17v9.57h9.81v-9.57h-9.81ZM273.39,231.35v9.82h9.81v-9.82h-9.81ZM273.39,221.59v9.76h9.81v-9.76h-9.81ZM273.39,211.77v9.82h9.81v-9.82h-9.81ZM273.39,202.01v9.76h9.81v-9.76h-9.81ZM273.39,192.19v9.82h9.81v-9.82h-9.81ZM273.39,182.38v9.81h9.81v-9.81h-9.81ZM273.39,163v9.81h9.81v-9.81h-9.81ZM263.62,182.38v9.81h9.77v-9.81h-9.77ZM263.62,163v9.81h9.77v-9.81h-9.77ZM253.81,182.38v9.81h9.81v-9.81h-9.81ZM253.81,172.81v9.57h9.81v-9.57h-9.81ZM253.81,163v9.81h9.81v-9.81h-9.81Z"/>
  <polygon class="cls-28" points="322.17 172.81 322.17 182.38 302.59 182.38 302.59 241.17 283.2 241.17 283.2 182.38 263.62 182.38 263.62 172.81 322.17 172.81"/>
  <path class="cls-14" d="M331.98,163v19.38h9.81v-19.38h-9.81ZM331.98,172.81v9.57h9.81v-9.57h-9.81ZM331.98,182.38v9.81h9.81v-9.81h-9.81ZM331.98,192.19v9.82h9.81v-9.82h-9.81ZM341.75,192.19v9.82h-9.77v9.76h9.81v-19.58h-.04ZM331.98,211.77v9.82h9.81v-9.82h-9.81ZM331.98,221.59v9.76h9.81v-9.76h-9.81ZM331.98,231.35v9.82h9.81v-9.82h-9.81ZM331.98,241.17v9.57h19.58v-9.57h-19.58ZM341.79,163v9.81h9.77v-9.81h-9.77ZM341.79,241.17v9.57h9.77v-9.57h-9.77ZM341.79,250.74v9.67h9.77v-9.67h-9.77ZM331.98,172.81v29.2h9.81v-29.2h-9.81ZM341.79,241.17v9.57h19.58v-9.57h-19.58ZM361.37,192.19v48.98h9.58v-48.98h-9.58ZM361.37,163h-9.81v9.81h9.81v-9.81ZM331.98,182.38v9.81h9.81v-9.81h-9.81ZM361.37,182.38v58.79h9.58v-58.79h-9.58ZM351.56,241.17v9.57h9.81v-9.57h-9.81ZM351.56,241.17v19.24h9.81v-19.24h-9.81ZM361.37,163v29.19h9.58v-29.19h-9.58ZM361.37,172.81v19.38h9.58v-19.38h-9.58ZM361.37,182.38v9.81h9.58v-9.81h-9.58ZM361.37,192.19v9.82h9.58v-9.82h-9.58ZM361.37,202.01v9.76h9.58v-9.76h-9.58ZM361.37,211.77v9.82h9.58v-9.82h-9.58ZM361.37,221.59v9.76h9.58v-9.76h-9.58ZM361.37,231.35v9.82h9.58v-9.82h-9.58ZM361.37,241.17v9.57h9.58v-9.57h-9.58ZM361.37,241.17v19.24h9.58v-19.24h-9.58ZM370.95,172.81v9.57h9.81v-9.57h-9.81ZM370.95,182.38v9.81h9.81v-9.81h-9.81ZM370.95,192.19v9.82h9.81v-9.82h-9.81ZM370.95,202.01v9.76h9.81v-9.76h-9.81ZM370.95,211.77v9.82h9.81v-9.82h-9.81ZM370.95,221.59v9.76h9.81v-9.76h-9.81ZM370.95,231.35v9.82h9.81v-9.82h-9.81ZM370.95,241.17v9.57h9.81v-9.57h-9.81ZM370.95,241.17v19.24h9.81v-19.24h-9.81Z"/>
  <rect class="cls-5" x="341.79" y="172.81" width="19.58" height="68.36"/>
  <path class="cls-9" d="M458.88,241.17v9.57h9.62v-9.57h-9.62ZM458.88,231.35v9.82h9.62v-9.82h-9.62ZM458.88,221.59v9.76h9.62v-9.76h-9.62ZM458.88,211.77v9.82h9.62v-9.82h-9.62ZM458.88,202.01v9.76h9.62v-9.76h-9.62ZM458.88,192.19v9.82h9.62v-9.82h-9.62ZM458.88,182.38v9.81h9.62v-9.81h-9.62ZM449.12,241.17v19.24h9.76v-19.24h-9.76ZM449.12,241.17v9.57h9.76v-9.57h-9.76ZM449.12,231.35v9.82h9.76v-9.82h-9.76ZM449.12,221.59v19.58h9.76v-19.58h-9.76ZM449.12,211.77v9.82h9.76v-9.82h-9.76ZM449.12,202.01v9.76h9.76v-9.76h-9.76ZM449.12,192.19v9.82h9.76v-9.82h-9.76ZM449.12,182.38v9.81h9.76v-9.81h-9.76ZM439.3,172.81v9.57h9.82v9.81h9.76v-19.38h-19.58ZM439.3,241.17v19.24h9.82v-19.24h-9.82ZM439.3,241.17v9.57h9.82v-9.57h-9.82ZM439.3,231.35v9.82h9.82v-9.82h-9.82ZM439.3,172.81v9.57h9.82v-9.57h-9.82ZM439.3,163v9.81h9.82v-9.81h-9.82ZM429.54,250.74v9.67h9.76v-9.67h-9.76ZM429.54,241.17v9.57h9.76v-9.57h-9.76ZM449.12,192.19v39.16h-9.82v9.82h19.58v-48.98h-9.76ZM439.3,163h-9.76v9.81h9.76v-9.81ZM390.53,241.17v9.57h48.77v-9.57h-48.77ZM429.54,231.35v-48.97h-29.2v48.97h29.2ZM380.76,231.35v-48.97h-9.81v58.79h19.58v-9.82h-9.77ZM390.53,172.81h-9.77v9.57h9.77v-9.57ZM419.72,250.74v9.67h9.82v-9.67h-9.82ZM419.72,241.17v9.57h9.82v-9.57h-9.82ZM419.72,221.59v9.76h9.82v-9.76h-9.82ZM409.91,211.77v9.82h19.63v-9.82h-19.63ZM409.91,202.01v9.76h19.63v-9.76h-19.63ZM409.91,192.19v9.82h19.63v-9.82h-19.63ZM419.72,182.38v9.81h9.82v-9.81h-9.82ZM419.72,163v9.81h9.82v-9.81h-9.82ZM409.91,250.74v9.67h9.81v-9.67h-9.81ZM409.91,241.17v9.57h9.81v-9.57h-9.81ZM409.91,221.59v9.76h9.81v-9.76h-9.81ZM409.91,211.77v9.82h9.81v-9.82h-9.81ZM409.91,202.01v9.76h9.81v-9.76h-9.81ZM409.91,192.19v9.82h9.81v-9.82h-9.81ZM409.91,182.38v9.81h9.81v-9.81h-9.81ZM409.91,163v9.81h9.81v-9.81h-9.81ZM400.34,250.74v9.67h9.57v-9.67h-9.57ZM400.34,241.17v9.57h9.57v-9.57h-9.57ZM400.34,221.59v9.76h9.57v-9.76h-9.57ZM400.34,211.77v9.82h9.57v-9.82h-9.57ZM400.34,202.01v9.76h9.57v-9.76h-9.57ZM400.34,192.19v9.82h9.57v-9.82h-9.57ZM400.34,182.38v9.81h9.57v-9.81h-9.57ZM400.34,163v9.81h9.57v-9.81h-9.57ZM390.53,250.74v9.67h9.81v-9.67h-9.81ZM390.53,241.17v9.57h9.81v-9.57h-9.81ZM390.53,163v9.81h9.81v-9.81h-9.81ZM380.76,241.17v9.57h9.77v-9.57h-9.77ZM370.95,231.35v9.82h19.58v-9.82h-19.58ZM380.76,172.81v9.57h9.77v-9.57h-9.77ZM380.76,163v9.81h9.77v-9.81h-9.77ZM370.95,231.35v9.82h9.81v-9.82h-9.81ZM370.95,221.59v9.76h9.81v-9.76h-9.81ZM370.95,211.77v9.82h9.81v-9.82h-9.81ZM370.95,202.01v9.76h9.81v-9.76h-9.81ZM370.95,192.19v9.82h9.81v-9.82h-9.81ZM370.95,182.38v9.81h9.81v-9.81h-9.81ZM370.95,172.81v9.57h9.81v-9.57h-9.81Z"/>
  <path class="cls-8" d="M439.3,182.38v-9.57h-48.77v9.57h-9.77v48.97h9.77v9.82h48.77v-9.82h9.82v-48.97h-9.82ZM429.54,231.35h-29.2v-48.97h29.2v48.97Z"/>
  <path class="cls-3" d="M546.82,250.74v9.67h9.62v-9.67h-9.62ZM537.06,241.17v9.57h19.38v-9.57h-19.38ZM537.06,231.35v9.82h19.38v-9.82h-19.38ZM537.06,221.59v9.76h19.38v-9.76h-19.38ZM537.06,211.77v9.82h19.38v-9.82h-19.38ZM537.06,202.01v9.76h19.38v-9.76h-19.38ZM537.06,192.19v9.82h19.38v-9.82h-19.38ZM537.06,182.38v9.81h19.38v-9.81h-19.38ZM537.06,172.81v9.57h19.38v-9.57h-19.38ZM537.06,250.74v9.67h9.76v-9.67h-9.76ZM537.06,241.17v9.57h9.76v-9.57h-9.76ZM537.06,231.35v9.82h9.76v-9.82h-9.76ZM537.06,221.59v9.76h9.76v-9.76h-9.76ZM537.06,211.77v9.82h9.76v-9.82h-9.76ZM537.06,202.01v9.76h9.76v-9.76h-9.76ZM537.06,192.19v9.82h9.76v-9.82h-9.76ZM537.06,182.38v9.81h9.76v-9.81h-9.76ZM537.06,172.81v9.57h9.76v-9.57h-9.76ZM537.06,163v9.81h9.76v-9.81h-9.76ZM527.24,250.74v9.67h9.82v-9.67h-9.82ZM527.24,241.17v9.57h9.82v-9.57h-9.82ZM527.24,163v9.81h9.82v-9.81h-9.82ZM517.48,241.17v9.57h19.58v-9.57h-19.58ZM517.48,221.59h-9.82v-9.82h-9.81v-9.76h-9.57v39.16h29.2v-19.58ZM507.66,192.19v9.82h9.82v-29.2h-9.82v9.57h-9.81v9.81h9.81ZM497.85,172.81h-9.57v9.57h9.57v-9.57ZM468.7,241.17v9.57h19.58v-9.57h-19.58ZM468.7,172.81h-9.82v68.36h9.82v-68.36ZM517.48,250.74v9.67h9.76v-9.67h-9.76ZM517.48,241.17v9.57h9.76v-9.57h-9.76ZM517.48,163v9.81h9.76v-9.81h-9.76ZM507.66,241.17v9.57h9.82v-9.57h-9.82ZM497.85,231.35v9.82h19.63v-9.82h-19.63ZM497.85,221.59v9.76h19.63v-9.76h-19.63ZM507.66,192.19v9.82h9.82v-9.82h-9.82ZM507.66,182.38v9.81h9.82v-9.81h-9.82ZM507.66,172.81v9.57h9.82v-9.57h-9.82ZM507.66,163v9.81h9.82v-9.81h-9.82ZM497.85,241.17v19.24h9.81v-19.24h-9.81ZM497.85,241.17v9.57h9.81v-9.57h-9.81ZM497.85,231.35v9.82h9.81v-9.82h-9.81ZM497.85,221.59v9.76h9.81v-9.76h-9.81ZM497.85,211.77v9.82h9.81v-9.82h-9.81ZM497.85,182.38v9.81h9.81v-9.81h-9.81ZM497.85,172.81v9.57h9.81v-9.57h-9.81ZM488.28,241.17v19.24h9.57v-19.24h-9.57ZM488.28,241.17v9.57h9.57v-9.57h-9.57ZM488.28,231.35v9.82h9.57v-9.82h-9.57ZM488.28,221.59v9.76h9.57v-9.76h-9.57ZM488.28,211.77v9.82h9.57v-9.82h-9.57ZM488.28,202.01v9.76h9.57v-9.76h-9.57ZM488.28,172.81v9.57h9.57v-9.57h-9.57ZM488.28,163v9.81h9.57v-9.81h-9.57ZM478.46,250.74v9.67h9.82v-9.67h-9.82ZM478.46,241.17v9.57h9.82v-9.57h-9.82ZM478.46,163v9.81h9.82v-9.81h-9.82ZM468.7,250.74v9.67h9.76v-9.67h-9.76ZM468.7,241.17v9.57h9.76v-9.57h-9.76ZM468.7,163v9.81h9.76v-9.81h-9.76ZM458.88,241.17v9.57h9.82v-9.57h-9.82ZM458.88,231.35v9.82h9.82v-9.82h-9.82ZM458.88,221.59v9.76h9.82v-9.76h-9.82ZM458.88,211.77v9.82h9.82v-9.82h-9.82ZM458.88,202.01v9.76h9.82v-9.76h-9.82ZM458.88,192.19v9.82h9.82v-9.82h-9.82ZM458.88,182.38v9.81h9.82v-9.81h-9.82ZM458.88,172.81v9.57h9.82v-9.57h-9.82ZM458.88,163v9.81h9.82v-9.81h-9.82Z"/>
  <polygon class="cls-17" points="537.06 172.81 537.06 241.17 517.48 241.17 517.48 221.59 507.66 221.59 507.66 211.77 497.85 211.77 497.85 202.01 488.28 202.01 488.28 241.17 468.7 241.17 468.7 172.81 488.28 172.81 488.28 182.38 497.85 182.38 497.85 192.19 507.66 192.19 507.66 202.01 517.48 202.01 517.48 172.81 537.06 172.81"/>
</svg>